<mxfile host="app.diagrams.net" agent="Mozilla/5.0 (Windows NT 10.0; Win64; x64) AppleWebKit/537.36 (KHTML, like Gecko) Chrome/136.0.0.0 Safari/537.36 Edg/136.0.0.0" version="26.0.16">
  <diagram name="第 1 页" id="WRa8PWZzJa2GoMIzC6Us">
    <mxGraphModel dx="1508" dy="674" grid="1" gridSize="10" guides="1" tooltips="1" connect="1" arrows="1" fold="1" page="1" pageScale="1" pageWidth="827" pageHeight="1169" math="0" shadow="0">
      <root>
        <mxCell id="0" />
        <mxCell id="1" parent="0" />
        <mxCell id="83M7kkVLi7Aee7MKhtZ4-1" value="企业" style="whiteSpace=wrap;strokeWidth=2;" vertex="1" parent="1">
          <mxGeometry x="1566" y="560" width="174" height="177" as="geometry" />
        </mxCell>
        <mxCell id="83M7kkVLi7Aee7MKhtZ4-2" value="工业园区" style="whiteSpace=wrap;strokeWidth=2;" vertex="1" parent="1">
          <mxGeometry x="1257" y="550" width="190" height="187" as="geometry" />
        </mxCell>
        <mxCell id="83M7kkVLi7Aee7MKhtZ4-3" value="村/居" style="whiteSpace=wrap;strokeWidth=2;" vertex="1" parent="1">
          <mxGeometry x="979" y="550" width="158" height="187" as="geometry" />
        </mxCell>
        <mxCell id="83M7kkVLi7Aee7MKhtZ4-4" value="镇/街" style="whiteSpace=wrap;strokeWidth=2;" vertex="1" parent="1">
          <mxGeometry x="670" y="560" width="190" height="187" as="geometry" />
        </mxCell>
        <mxCell id="83M7kkVLi7Aee7MKhtZ4-5" value="县/区" style="whiteSpace=wrap;strokeWidth=2;" vertex="1" parent="1">
          <mxGeometry x="345" y="560" width="206" height="187" as="geometry" />
        </mxCell>
        <mxCell id="83M7kkVLi7Aee7MKhtZ4-6" value="市" style="whiteSpace=wrap;strokeWidth=2;" vertex="1" parent="1">
          <mxGeometry x="20" y="570" width="206" height="177" as="geometry" />
        </mxCell>
        <mxCell id="83M7kkVLi7Aee7MKhtZ4-7" value="应急指挥中心" style="whiteSpace=wrap;strokeWidth=2;" vertex="1" parent="1">
          <mxGeometry x="45" y="636" width="156" height="54" as="geometry" />
        </mxCell>
        <mxCell id="83M7kkVLi7Aee7MKhtZ4-8" value="区级管理部门" style="whiteSpace=wrap;strokeWidth=2;" vertex="1" parent="1">
          <mxGeometry x="370" y="636" width="156" height="54" as="geometry" />
        </mxCell>
        <mxCell id="83M7kkVLi7Aee7MKhtZ4-9" value="街道办事处" style="whiteSpace=wrap;strokeWidth=2;" vertex="1" parent="1">
          <mxGeometry x="695" y="636" width="140" height="54" as="geometry" />
        </mxCell>
        <mxCell id="83M7kkVLi7Aee7MKhtZ4-10" value="居委会" style="whiteSpace=wrap;strokeWidth=2;" vertex="1" parent="1">
          <mxGeometry x="1004" y="627" width="108" height="54" as="geometry" />
        </mxCell>
        <mxCell id="83M7kkVLi7Aee7MKhtZ4-11" value="园区管委会" style="whiteSpace=wrap;strokeWidth=2;" vertex="1" parent="1">
          <mxGeometry x="1282" y="627" width="140" height="54" as="geometry" />
        </mxCell>
        <mxCell id="83M7kkVLi7Aee7MKhtZ4-12" value="生产单位" style="whiteSpace=wrap;strokeWidth=2;" vertex="1" parent="1">
          <mxGeometry x="1591" y="627" width="124" height="54" as="geometry" />
        </mxCell>
        <mxCell id="83M7kkVLi7Aee7MKhtZ4-13" value="事件上报" style="curved=1;startArrow=none;endArrow=block;exitX=0.05;exitY=1;entryX=0.93;entryY=1;rounded=0;" edge="1" parent="1" source="83M7kkVLi7Aee7MKhtZ4-12" target="83M7kkVLi7Aee7MKhtZ4-11">
          <mxGeometry relative="1" as="geometry">
            <Array as="points">
              <mxPoint x="1566" y="696" />
              <mxPoint x="1447" y="696" />
            </Array>
          </mxGeometry>
        </mxCell>
        <mxCell id="83M7kkVLi7Aee7MKhtZ4-14" value="信息汇总" style="curved=1;startArrow=none;endArrow=block;exitX=0.06;exitY=1;entryX=0.97;entryY=1;rounded=0;" edge="1" parent="1" source="83M7kkVLi7Aee7MKhtZ4-11" target="83M7kkVLi7Aee7MKhtZ4-10">
          <mxGeometry relative="1" as="geometry">
            <Array as="points">
              <mxPoint x="1257" y="696" />
              <mxPoint x="1137" y="696" />
            </Array>
          </mxGeometry>
        </mxCell>
        <mxCell id="83M7kkVLi7Aee7MKhtZ4-15" value="初步处理" style="curved=1;startArrow=none;endArrow=block;exitX=0.12;exitY=1;entryX=0.93;entryY=1.01;rounded=0;" edge="1" parent="1" source="83M7kkVLi7Aee7MKhtZ4-10" target="83M7kkVLi7Aee7MKhtZ4-9">
          <mxGeometry relative="1" as="geometry">
            <Array as="points">
              <mxPoint x="979" y="706" />
              <mxPoint x="860" y="706" />
            </Array>
          </mxGeometry>
        </mxCell>
        <mxCell id="83M7kkVLi7Aee7MKhtZ4-16" value="审核提交" style="curved=1;startArrow=none;endArrow=block;exitX=0.07;exitY=1.01;entryX=0.92;entryY=1.01;rounded=0;" edge="1" parent="1" source="83M7kkVLi7Aee7MKhtZ4-9" target="83M7kkVLi7Aee7MKhtZ4-8">
          <mxGeometry relative="1" as="geometry">
            <Array as="points">
              <mxPoint x="670" y="706" />
              <mxPoint x="551" y="706" />
            </Array>
          </mxGeometry>
        </mxCell>
        <mxCell id="83M7kkVLi7Aee7MKhtZ4-17" value="呈报市局" style="curved=1;startArrow=none;endArrow=block;exitX=0.08;exitY=1.01;entryX=0.92;entryY=1.01;rounded=0;" edge="1" parent="1" source="83M7kkVLi7Aee7MKhtZ4-8" target="83M7kkVLi7Aee7MKhtZ4-7">
          <mxGeometry relative="1" as="geometry">
            <Array as="points">
              <mxPoint x="345" y="706" />
              <mxPoint x="226" y="706" />
            </Array>
          </mxGeometry>
        </mxCell>
        <mxCell id="83M7kkVLi7Aee7MKhtZ4-18" value="红头文件" style="curved=1;startArrow=none;endArrow=block;exitX=0.92;exitY=0.01;entryX=0.08;entryY=0.01;rounded=0;" edge="1" parent="1" source="83M7kkVLi7Aee7MKhtZ4-7" target="83M7kkVLi7Aee7MKhtZ4-8">
          <mxGeometry relative="1" as="geometry">
            <Array as="points">
              <mxPoint x="226" y="621" />
              <mxPoint x="345" y="621" />
            </Array>
          </mxGeometry>
        </mxCell>
        <mxCell id="83M7kkVLi7Aee7MKhtZ4-19" value="任务分解" style="curved=1;startArrow=none;endArrow=block;exitX=0.92;exitY=0.01;entryX=0.06;entryY=0.01;rounded=0;" edge="1" parent="1" source="83M7kkVLi7Aee7MKhtZ4-8" target="83M7kkVLi7Aee7MKhtZ4-9">
          <mxGeometry relative="1" as="geometry">
            <Array as="points">
              <mxPoint x="551" y="621" />
              <mxPoint x="670" y="621" />
            </Array>
          </mxGeometry>
        </mxCell>
        <mxCell id="83M7kkVLi7Aee7MKhtZ4-20" value="工作部署" style="curved=1;startArrow=none;endArrow=block;exitX=0.93;exitY=0.01;entryX=0;entryY=0.08;rounded=0;" edge="1" parent="1" source="83M7kkVLi7Aee7MKhtZ4-9" target="83M7kkVLi7Aee7MKhtZ4-10">
          <mxGeometry relative="1" as="geometry">
            <Array as="points">
              <mxPoint x="860" y="621" />
              <mxPoint x="979" y="621" />
            </Array>
          </mxGeometry>
        </mxCell>
        <mxCell id="83M7kkVLi7Aee7MKhtZ4-21" value="传达要求" style="curved=1;startArrow=none;endArrow=block;exitX=0.97;exitY=0;entryX=0.07;entryY=0;rounded=0;" edge="1" parent="1" source="83M7kkVLi7Aee7MKhtZ4-10" target="83M7kkVLi7Aee7MKhtZ4-11">
          <mxGeometry relative="1" as="geometry">
            <Array as="points">
              <mxPoint x="1137" y="611" />
              <mxPoint x="1257" y="611" />
            </Array>
          </mxGeometry>
        </mxCell>
        <mxCell id="83M7kkVLi7Aee7MKhtZ4-22" value="落实执行" style="curved=1;startArrow=none;endArrow=block;exitX=0.93;exitY=0;entryX=0.06;entryY=0;rounded=0;" edge="1" parent="1" source="83M7kkVLi7Aee7MKhtZ4-11" target="83M7kkVLi7Aee7MKhtZ4-12">
          <mxGeometry relative="1" as="geometry">
            <Array as="points">
              <mxPoint x="1447" y="611" />
              <mxPoint x="1566" y="611" />
            </Array>
          </mxGeometry>
        </mxCell>
        <mxCell id="83M7kkVLi7Aee7MKhtZ4-23" value="专项督导" style="curved=1;dashed=1;dashPattern=2 3;startArrow=none;endArrow=block;exitX=1;exitY=0.51;entryX=0;entryY=0.51;rounded=0;" edge="1" parent="1" source="83M7kkVLi7Aee7MKhtZ4-7" target="83M7kkVLi7Aee7MKhtZ4-8">
          <mxGeometry relative="1" as="geometry">
            <Array as="points">
              <mxPoint x="226" y="664" />
              <mxPoint x="345" y="664" />
            </Array>
          </mxGeometry>
        </mxCell>
        <mxCell id="83M7kkVLi7Aee7MKhtZ4-24" value="业务指导" style="curved=1;dashed=1;dashPattern=2 3;startArrow=none;endArrow=block;exitX=1;exitY=0.51;entryX=0;entryY=0.51;rounded=0;" edge="1" parent="1" source="83M7kkVLi7Aee7MKhtZ4-8" target="83M7kkVLi7Aee7MKhtZ4-9">
          <mxGeometry relative="1" as="geometry">
            <Array as="points">
              <mxPoint x="551" y="664" />
              <mxPoint x="670" y="664" />
            </Array>
          </mxGeometry>
        </mxCell>
        <mxCell id="83M7kkVLi7Aee7MKhtZ4-25" value="现场检查" style="curved=1;dashed=1;dashPattern=2 3;startArrow=none;endArrow=block;exitX=1;exitY=0.51;entryX=0;entryY=0.62;rounded=0;" edge="1" parent="1" source="83M7kkVLi7Aee7MKhtZ4-9" target="83M7kkVLi7Aee7MKhtZ4-10">
          <mxGeometry relative="1" as="geometry">
            <Array as="points">
              <mxPoint x="860" y="664" />
              <mxPoint x="979" y="664" />
            </Array>
          </mxGeometry>
        </mxCell>
        <mxCell id="83M7kkVLi7Aee7MKhtZ4-26" value="进度跟踪" style="curved=1;dashed=1;dashPattern=2 3;startArrow=none;endArrow=block;exitX=1;exitY=0.49;entryX=0;entryY=0.49;rounded=0;" edge="1" parent="1" source="83M7kkVLi7Aee7MKhtZ4-10" target="83M7kkVLi7Aee7MKhtZ4-11">
          <mxGeometry relative="1" as="geometry">
            <Array as="points">
              <mxPoint x="1137" y="654" />
              <mxPoint x="1257" y="654" />
            </Array>
          </mxGeometry>
        </mxCell>
        <mxCell id="83M7kkVLi7Aee7MKhtZ4-27" value="整改反馈" style="curved=1;dashed=1;dashPattern=2 3;startArrow=none;endArrow=block;exitX=1;exitY=0.49;entryX=0;entryY=0.49;rounded=0;" edge="1" parent="1" source="83M7kkVLi7Aee7MKhtZ4-11" target="83M7kkVLi7Aee7MKhtZ4-12">
          <mxGeometry relative="1" as="geometry">
            <Array as="points">
              <mxPoint x="1447" y="654" />
              <mxPoint x="1566" y="654" />
            </Array>
          </mxGeometry>
        </mxCell>
      </root>
    </mxGraphModel>
  </diagram>
</mxfile>
